# xmcd
#
# Track frame offsets:
#	150
#	16020
#	32147
#	47858
#	61432
#	78191
#	91859
#	107604
#	120672
#	134391
#	150263
#	164046
#
# Disc length: 2375 seconds
#
# Revision: 0
# Processed by: cddbd v1.5PL3 Copyright (c) Steve Scherf et al.
# Submitted via: dBpowerAMP V4.0
#
DISCID=8d09450c
DTITLE=aroma - enamoradas
DYEAR=1900
DGENRE=
TTITLE0=diganle
TTITLE1=que tiene ella
TTITLE2=tu le hiciste trampa
TTITLE3=enamoradas
TTITLE4=no me vuelvo a enamorar
TTITLE5=por un rato
TTITLE6=nunca imagine
TTITLE7=alejate
TTITLE8=como quisiera
TTITLE9=mientele
TTITLE10=amor de tres
TTITLE11=todavia
EXTD=
EXTT0=
EXTT1=
EXTT2=
EXTT3=
EXTT4=
EXTT5=
EXTT6=
EXTT7=
EXTT8=
EXTT9=
EXTT10=
EXTT11=
PLAYORDER=
